# Blender 3.3.1
# www.blender.org
mtllib triangle-object.mtl
o Cube
v 0.200000 -0.600000 0.500000
v 0.200000 -0.600000 -0.500000
v 0.200000 0.200000 0.500000
v 0.200000 0.200000 -0.500000
v -0.400000 0.200000 0.500000
v -0.400000 0.200000 -0.500000
vn -0.0000 -0.0000 1.0000
vn -0.8000 -0.6000 -0.0000
vn -0.0000 1.0000 -0.0000
vn -0.0000 -0.0000 -1.0000
vn 1.0000 -0.0000 -0.0000
vt 0.625000 0.500000
vt 0.375000 0.500000
vt 0.625000 0.250000
vt 0.375000 0.250000
vt 0.625000 0.000000
vt 0.375000 0.000000
s 0
usemtl Material
f 1/1/1 3/3/1 5/5/1
f 1/1/2 5/5/2 6/6/2 2/2/2
f 6/6/3 5/5/3 3/3/3 4/4/3
f 4/4/4 2/2/4 6/6/4
f 4/4/5 3/3/5 1/1/5 2/2/5
